# xmcd CD database file
#
# Track frame offsets:
#	150
#	18300
#	41558
#	65778
#	75238
#	91138
#	97913
#	114623
#	133023
#	145652
#	157774
#	174048
#	190023
#	200503
#	207350
#	235065
#	260639
#	280077
#	288286
#
# Disc length: 4436 seconds
#
# Revision: 0
# Processed by: cddbd v1.5.2PL0 Copyright (c) Steve Scherf et al.
# Submitted via: CDex 1.51
#
DISCID=f8115213
DTITLE=Jerez Le Cam - Tango Imaginario
DYEAR=2006
DGENRE=Jazz
TTITLE0=Adoquin
TTITLE1=Almafuerte Club
TTITLE2=Yampartina
TTITLE3=Invisible
TTITLE4=Viento Salvaje
TTITLE5=Culebrita
TTITLE6=Viborita
TTITLE7=Nube De Coral
TTITLE8=Duende Melancolico
TTITLE9=Danza De Las Nubes Negras
TTITLE10=Chacarera De Carton
TTITLE11=Duende Del Azar
TTITLE12=Mandala Ala
TTITLE13=Tres Rios
TTITLE14=Gomera
TTITLE15=Humo Verde
TTITLE16=Avalancha Roja
TTITLE17=Lluvia
TTITLE18=Tormenta De Arena
EXTD=YEAR: 2006
EXTT0=
EXTT1=
EXTT2=
EXTT3=
EXTT4=
EXTT5=
EXTT6=
EXTT7=
EXTT8=
EXTT9=
EXTT10=
EXTT11=
EXTT12=
EXTT13=
EXTT14=
EXTT15=
EXTT16=
EXTT17=
EXTT18=
PLAYORDER=
